<?xml version="1.0" encoding="UTF-8"?>
<svg id="Layer_2" data-name="Layer 2" xmlns="http://www.w3.org/2000/svg" xmlns:xlink="http://www.w3.org/1999/xlink" viewBox="0 0 905.36 132.48">
  <defs>
    <style>
      .cls-1 {
        fill: url(#radial-gradient-3);
      }

      .cls-2 {
        fill: url(#radial-gradient-2);
      }

      .cls-3 {
        fill: url(#linear-gradient-8);
      }

      .cls-4 {
        fill: url(#linear-gradient-7);
      }

      .cls-5 {
        fill: url(#linear-gradient-5);
      }

      .cls-6 {
        fill: url(#linear-gradient-6);
      }

      .cls-7 {
        fill: url(#linear-gradient-4);
      }

      .cls-8 {
        fill: url(#linear-gradient-3);
      }

      .cls-9 {
        fill: url(#linear-gradient-2);
      }

      .cls-10 {
        fill: url(#radial-gradient);
      }

      .cls-11 {
        fill: url(#linear-gradient);
      }

      .cls-12 {
        fill: #4fbfd8;
      }

      .cls-13 {
        fill: #79cba3;
      }

      .cls-14 {
        letter-spacing: -.02em;
      }

      .cls-14, .cls-15 {
        fill: #fff;
      }

      .cls-16 {
        font-family: ArialMT, Arial;
        font-size: 112px;
      }

      .cls-17 {
        fill: #c63a8e;
      }
    </style>
    <radialGradient id="radial-gradient" cx="848.33" cy="65.93" fx="848.33" fy="65.93" r="41.8" gradientUnits="userSpaceOnUse">
      <stop offset="0" stop-color="#4fbfd8"/>
      <stop offset=".36" stop-color="#4fbfd6"/>
      <stop offset=".49" stop-color="#50c0cf"/>
      <stop offset=".58" stop-color="#53c3c3"/>
      <stop offset=".65" stop-color="#56c6b2"/>
      <stop offset=".71" stop-color="#5bcaa0"/>
    </radialGradient>
    <linearGradient id="linear-gradient" x1="857.94" y1="87.71" x2="863.44" y2="102.23" gradientUnits="userSpaceOnUse">
      <stop offset="0" stop-color="#c63a8e"/>
      <stop offset=".47" stop-color="#c4398d"/>
      <stop offset=".64" stop-color="#bd388c"/>
      <stop offset=".75" stop-color="#b1358b"/>
      <stop offset=".85" stop-color="#a03289"/>
      <stop offset=".93" stop-color="#8a2d86"/>
      <stop offset="1" stop-color="#732983"/>
    </linearGradient>
    <linearGradient id="linear-gradient-2" x1="839.68" y1="84.89" x2="835.51" y2="103.68" xlink:href="#linear-gradient"/>
    <linearGradient id="linear-gradient-3" x1="870.06" y1="72.66" x2="886.97" y2="82.7" xlink:href="#linear-gradient"/>
    <linearGradient id="linear-gradient-4" x1="867.43" y1="56.85" x2="892.29" y2="51.05" xlink:href="#linear-gradient"/>
    <linearGradient id="linear-gradient-5" x1="857.69" y1="47.59" x2="861.58" y2="27.64" xlink:href="#linear-gradient"/>
    <linearGradient id="linear-gradient-6" x1="837.76" y1="47.13" x2="834.94" y2="29" xlink:href="#linear-gradient"/>
    <linearGradient id="linear-gradient-7" x1="827.55" y1="61.98" x2="810.71" y2="50.57" xlink:href="#linear-gradient"/>
    <linearGradient id="linear-gradient-8" x1="826.06" y1="77.78" x2="805.34" y2="78.79" xlink:href="#linear-gradient"/>
    <radialGradient id="radial-gradient-2" cx="866.86" cy="35.53" fx="842.06" fy="13.34" r="42.33" gradientTransform="translate(0 2.59) scale(1 .93)" gradientUnits="userSpaceOnUse">
      <stop offset=".5" stop-color="#5bcaa0"/>
      <stop offset=".59" stop-color="#819599"/>
      <stop offset=".72" stop-color="#c63a8e"/>
    </radialGradient>
    <radialGradient id="radial-gradient-3" cx="855.63" cy="115.21" fx="855.63" fy="115.21" r="69.32" gradientUnits="userSpaceOnUse">
      <stop offset=".46" stop-color="#5bcaa0"/>
      <stop offset=".54" stop-color="#809799"/>
      <stop offset=".65" stop-color="#b25491"/>
      <stop offset=".7" stop-color="#c63a8e"/>
    </radialGradient>
  </defs>
  <g id="Layer_3" data-name="Layer 3">
    <text class="cls-16" transform="translate(0 96.11)"><tspan class="cls-13" x="0" y="0">bizz</tspan><tspan class="cls-15" x="199.17" y="0">NES</tspan><tspan class="cls-14" x="429.46" y="0">T</tspan><tspan class="cls-15" x="495.85" y="0" xml:space="preserve"> Flow</tspan></text>
    <g>
      <path class="cls-10" d="M870.62,45.5c-4,.06-7.49,1.12-7.49,1.12-2.04.62-3.67,1.39-4.8,2.01-.59-.39-1.37-.82-2.34-1.18-.84-.31-1.6-.49-2.24-.6.3-.51.83-1.35,1.56-2.34,3.93-5.3,8.89-8.03,11.38-9.37.73-.39,1.84-.96,3.24-1.56-2.38-1.93-4.76-3.87-7.14-5.8-3.11,1.21-8.19,3.66-13.02,8.49-3.82,3.82-6.09,7.74-7.4,10.48-.68.24-1.41.52-2.18.88-.81.37-1.53.76-2.17,1.13-.05-1.51-.31-11.24,1.12-14.17.11-.22.22-.45.22-.45,1.03-2,2.12-3.44,2.9-4.35-3.98-.19-7.96-.37-11.94-.56-.31.81-.72,1.95-1.12,3.35-2.15,7.51-1.59,13.64-1.44,15.07.25,2.4.85,5.76,2.33,9.59-.26.57-.52,1.19-.76,1.85-.33.88-.59,1.72-.8,2.5-2.05-1.27-4.57-3.15-6.97-5.86-.72-.81-2.71-3.14-4.52-6.64-.77-1.48-1.31-2.8-1.67-3.79-2.38,2.05-4.76,4.09-7.14,6.14,1.02,3.33,4.02,11.47,12.11,17.24,3.25,2.32,6.45,3.63,8.98,4.4.2.62.47,1.31.83,2.04.24.48.49.92.73,1.31-2.42.54-6.19,1.07-10.74.5-4.46-.56-7.92-1.97-10.12-3.07-2.59-1.04-5.31-.21-6.36,1.56-1.35,2.28.41,5.43,1.67,6.25,1.22.79,2.28,1.52,3.66,2.2,2.2,1.08,4.07,1.52,4.76,1.7,6.68,1.72,13.56,1.23,13.56,1.23,4.69-.33,8.72-1.39,11.94-2.57.53.28,1.14.56,1.81.82.71.27,1.38.48,1.98.63-2.27,3.59-4.72,6.13-6.58,7.81-2.55,2.3-4.85,3.73-5.91,4.35-2.88,1.69-5.54,2.71-7.59,3.35,5.24.97,10.49,1.93,15.73,2.9,2.76-1.62,6.9-4.53,10.6-9.37,2.61-3.42,4.18-6.74,5.13-9.26.61-.21,1.26-.46,1.95-.76.65-.29,1.24-.59,1.77-.88.41,1.95.72,4.4.63,7.22-.18,5.25-1.7,9.38-2.9,11.94,3.64-.82,7.29-1.64,10.93-2.45,1.02-2.98,2.29-7.92,1.9-14.06-.3-4.62-1.44-8.36-2.45-10.93.22-.42.44-.91.65-1.45.28-.73.46-1.41.58-2.01,2.39,1.06,5.53,2.88,8.33,5.98,1.42,1.58,2.37,3.07,2.94,4.06,1.71,2.98,2.45,5.74,2.79,7.59,2.01-2.63,4.01-5.25,6.02-7.88-2.18-4.63-6.2-11.35-13.39-17-2.23-1.75-4.42-3.14-6.47-4.24-.17-.63-.39-1.33-.69-2.07-.28-.69-.58-1.3-.87-1.83.79-.36,1.97-.84,3.46-1.23,7.67-1.99,14.29.92,16.18,1.79,1.86.85,4.64,2.39,7.47,5.13.07-2.57.15-5.13.22-7.7-9.22-6.52-17.97-9.23-22.85-9.15Z"/>
      <path class="cls-11" d="M866.25,75.52c.93,2.33,1.84,5.26,2.34,8.7,1.08,7.43-.29,13.6-1.45,17.29-1.69.76-3.75,1.53-6.14,2.12-3.75.92-7.07,1.08-9.59,1,.51-.33,1.03-.7,1.56-1.12,2.16-1.71,3.66-3.61,4.69-5.24,2.49-3.33,5.61-8.46,7.36-15.28.7-2.72,1.06-5.25,1.23-7.47Z"/>
      <path class="cls-9" d="M854.43,85.45c-.77,2.03-1.84,4.32-3.35,6.69-3.86,6.09-8.72,9.8-12.03,11.88-2.26.21-5.36.25-8.94-.39-3.74-.67-6.73-1.87-8.81-2.9,1.48-.27,3.13-.66,4.91-1.23,1.62-.52,3.08-1.1,4.35-1.67,4.79-.96,11.48-3.02,18.19-7.7,2.2-1.54,4.09-3.14,5.69-4.69Z"/>
      <path class="cls-8" d="M867.7,60.57c3.72,1.64,9.13,4.6,14.28,9.82,3.07,3.11,5.26,6.21,6.81,8.81-.35,1.55-1.25,4.48-3.68,7.25-1.58,1.8-3.26,2.91-4.46,3.57-.09-1.8-.41-3.94-1.23-6.25-.21-.59-.43-1.15-.67-1.67-.94-3.39-2.42-7.56-4.8-12.05-2.05-3.86-4.26-7.01-6.25-9.48Z"/>
      <path class="cls-7" d="M858.33,48.63c1.19-.63,2.81-1.41,4.8-2.12.29-.1,4.78-1.67,9.82-2.01,9.02-.6,17.12,2.95,19.41,4.02.68,2.17,1.33,5.15,1.34,8.7,0,1.93-.19,3.66-.45,5.13-1.18-1.01-2.55-2.08-4.13-3.12-1.16-.77-2.29-1.44-3.35-2.01-2.73-1.93-6.64-4.27-11.71-6.02-6.36-2.2-11.97-2.6-15.73-2.57Z"/>
      <path class="cls-5" d="M842.38,46.74c.81-1.71,1.8-3.51,3.01-5.36,4.33-6.58,9.65-10.8,13.72-13.39,2.36-.12,5.53-.03,9.17.76,3.31.72,6.01,1.82,8.01,2.81-1.22.28-2.53.64-3.9,1.12-2.18.75-4.08,1.61-5.69,2.45-2.27.24-4.84.71-7.59,1.56-7.97,2.47-13.52,6.92-16.74,10.04Z"/>
      <path class="cls-6" d="M830.1,57.22c-1.06-2.68-2.29-6.71-2.57-11.71-.32-5.89.82-10.66,1.79-13.61,2.65-1.28,6.15-2.61,10.38-3.35,1.89-.33,3.65-.5,5.24-.56-.9.65-1.96,1.53-3.01,2.68-1.29,1.41-2.18,2.79-2.79,3.9-2.22,2.14-6.46,6.82-8.26,14.06-.83,3.35-.92,6.32-.78,8.59Z"/>
      <path class="cls-4" d="M829.32,73.07c-2.88-.89-7.45-2.69-12.05-6.47-5.43-4.46-8.25-9.51-9.59-12.38.91-1.96,2.08-4.16,3.57-6.47,1.43-2.21,2.88-4.1,4.24-5.69.06,1.11.21,2.44.56,3.9.29,1.2.64,2.24,1,3.12.53,4.13,2.01,10.91,6.69,17.63,1.84,2.63,3.79,4.73,5.58,6.36Z"/>
      <path class="cls-3" d="M839.25,84.22c-.51.19-1.03.38-1.56.56-7.07,2.38-17.42,3.99-31.24.45-.82-.79-3.58-3.66-4.07-8.28-.38-3.58.82-6.33,1.39-7.45.96.95,2.22,2.02,3.79,3.01.86.54,1.69.98,2.45,1.34,3.03,2.64,8.66,6.81,16.8,8.99,4.9,1.31,9.24,1.51,12.43,1.38Z"/>
      <path class="cls-12" d="M853.64,104.64c3.16,2.94,6.32,5.88,9.48,8.81,2.61-1.12,28.78-12.46,35.7-23.09,1.04-1.6,1.9-3.24,1.9-3.24,1.78-3.68,4.16-9.82,4.57-17.74.3-5.63-.49-10.36-1.34-13.72-4.12,5.61-8.24,11.22-12.36,16.83-.48,1.66-1.32,4.05-2.81,6.71-.51.91-.91,1.52-1.45,2.34-2.82,4.31-5.59,7.32-6.69,8.48-1.06,1.12-2.46,2.51-4.2,4.02-3.21,2.52-7.72,5.48-13.54,7.81-3.38,1.35-6.52,2.22-9.26,2.79Z"/>
      <path class="cls-12" d="M843.05,28.1c-3.27-3.38-6.55-6.77-9.82-10.15-5.97,1.39-18.8,5.31-28.39,17.09-.54.67-3.16,3.92-5.63,8.79-1.37,2.69-9.24,18.76-4.13,36.48.22.77.42,1.39.56,1.79,3.12-6.92,6.24-13.83,9.36-20.75.69-2.37,1.81-5.5,3.64-8.93,1.87-3.5,3.72-5.89,4.18-6.46,3.86-4.9,8.02-7.64,11.05-9.59,3.93-2.54,10.34-6.04,19.19-8.26Z"/>
      <path class="cls-17" d="M821.29,100.74c3.64,2.15,8.19,4.43,13.61,6.36,3.96,1.41,7.66,2.36,10.93,3.01.04-1.9.08-3.79.11-5.69-3.58-.11-7.57-.41-11.87-1.02-4.76-.68-9.04-1.63-12.79-2.66Z"/>
      <path class="cls-17" d="M876.29,31.56c-3.18-2.43-8.05-5.55-14.58-7.68-4.3-1.4-8.19-2-11.3-2.25v6.25c3.15-.15,6.79-.12,10.79.32,5.99.65,11.08,1.99,15.1,3.37Z"/>
      <path class="cls-17" d="M844.94,27.99c-2.96-2.54-5.8-4.97-5.92-5.07-.45-.39-5.34-4.58-5.8-4.97-4.6.91-13.98,3.42-22.76,11.16-5.87,5.17-9.27,10.75-11.16,14.5,1.9-1.16,4.47-2.65,7.6-4.22,2.11-1.05,4.12-1.94,6.48-2.96,6.34-2.74,11.38-4.78,17.95-6.37,4.89-1.18,8.9-1.63,10.34-1.79,1.33-.14,2.45-.23,3.27-.28Z"/>
      <path class="cls-17" d="M851.41,104.64c3.79,3.38,7.59,6.77,11.38,10.15,6.37-1.54,11.44-3.67,15.06-5.47,5.17-2.57,10.78-6.13,13.54-9.04,2.57-2.7,5.44-6.42,5.44-6.42h0s0,0,0,0c.74-1,1.5-2.16,2.25-3.47.65-1.15,1.19-2.25,1.64-3.27-2.53,1.94-5.86,4.26-9.97,6.54-1.74.97-6.99,3.8-14.35,6.29-5.71,1.93-14.23,4.16-24.99,4.69Z"/>
      <path class="cls-2" d="M895.06,36.36c-2.17-2.97-4.27-5.14-5.06-5.94-2.62-2.66-6.15-5.67-10.83-8.45-1.51-.9-7.6-4.47-16.54-6.69-3.55-.88-8.44-1.78-14.35-1.9v-7.37l-12.74,10.92,12.74,10.92v-7.88c2.61.07,6.08.38,10.04,1.36,1.5.37,6.42,1.72,12.38,5,3.4,1.87,11.24,6.3,16.8,14.95,2.06,3.2,3.41,6.36,4.28,9.3.45,1.52,2.08,7.36,1.19,15.02-.7,5.98-2.64,10.63-4.19,13.61,2.85-2.71,6.34-6.57,9.53-11.71,2.71-4.37,4.48-8.48,5.64-11.83-2.42-9.51-6.38-15.86-8.9-19.3Z"/>
      <path class="cls-1" d="M860.45,115.69c-4.12-3.68-8.23-7.36-12.35-11.05v7.39c-4.17-.54-9.31-1.61-14.86-3.8-5.66-2.22-14.47-5.69-21.28-14.53-2.53-3.28-8.11-11.8-7.95-23.67.09-7.24,2.29-12.83,3.78-15.94-2.73,3.3-6.11,8.11-8.79,14.5-1.99,4.73-3.07,9.06-3.68,12.56,1.42,4.7,4.79,13.37,12.98,21.36,7.78,7.59,16.02,10.78,19.71,12.16,9.11,3.42,16.98,3.84,20.09,3.9v7.89c4.12-3.6,8.23-7.19,12.35-10.79Z"/>
      <path class="cls-15" d="M859.42,55.05c-1.24-1.29-3.01-1.97-5.12-1.97-1.75,0-3.63.48-5.46,1.35-1.08-.2-2.21-.3-3.38-.3-7.17,0-13.01,3.91-13.01,8.71,0,2.3,1.31,4.45,3.69,6.08,0,.02-.01.04-.01.05-.66,2.92-.12,5.47,1.52,7.17,1.25,1.29,3.02,1.97,5.12,1.97.76,0,1.55-.09,2.34-.27,1.64,2.47,3.83,3.83,6.18,3.83h0c4.8,0,8.71-5.83,8.71-13.01,0-1.1-.09-2.16-.26-3.18.54-1.07.95-2.17,1.2-3.27.66-2.92.12-5.47-1.52-7.17ZM833.38,62.84c0-4.29,5.42-7.79,12.08-7.79.69,0,1.36.04,2.01.11-1.21.72-2.39,1.61-3.47,2.65-.61.59-1.17,1.21-1.68,1.85-.46.37-.92.77-1.36,1.19-2.19,2.11-3.78,4.61-4.57,7.13-1.95-1.43-3.02-3.23-3.02-5.14ZM858.78,65.33c-.51.96-1.14,1.9-1.89,2.8.4-.85.71-1.71.93-2.57.29-.58.49-1.19.58-1.81.15.51.27,1.03.37,1.58ZM845.56,76.8c-.33-.56-.62-1.16-.88-1.79.36.05.74.08,1.13.08,1.77,0,3.67-.49,5.52-1.38-1.81,1.49-3.81,2.56-5.77,3.1ZM845.81,74.16c-.52,0-1.01-.05-1.48-.14-.26-.81-.46-1.67-.6-2.55.57.05,1.15.09,1.74.09h0c4.29,0,8.09-1.4,10.46-3.55-.49.98-1.1,1.94-1.83,2.86-2.63,2.09-5.63,3.3-8.3,3.3ZM842.98,60.32c.94-.74,1.92-1.37,2.92-1.87-.29.34-.56.7-.82,1.09-1.61,2.44-2.49,5.69-2.49,9.13,0,.59.04,1.17.09,1.74-.94-.14-1.85-.36-2.7-.64-.57-2.75.52-6.3,3.01-9.45ZM838.99,69.4c-.63-.26-1.22-.56-1.77-.89.54-1.88,1.57-3.76,2.99-5.47-1.04,2.2-1.47,4.42-1.22,6.36ZM851.26,57.04c1.85,0,3.38.58,4.45,1.69,0,0,0,0,0,.01,1.41,1.47,1.87,3.71,1.28,6.32-.02.08-.04.15-.06.22-1.59,3.1-6.13,5.35-11.47,5.35h-.01c-.63,0-1.25-.04-1.85-.1-.06-.61-.1-1.23-.1-1.86,0-3.26.83-6.32,2.34-8.62.74-1.12,1.59-1.99,2.52-2.58.99-.28,1.96-.43,2.9-.43ZM842.78,71.36c.11.81.28,1.6.49,2.36-.74-.28-1.38-.7-1.91-1.25-.46-.48-.79-1.03-1.05-1.64.79.23,1.62.4,2.47.52ZM847.99,56.62c-.74.22-1.49.51-2.23.87,1.02-.84,2.11-1.55,3.22-2.1.48.1.95.21,1.41.34-.83.13-1.64.43-2.4.89ZM838.32,75.51c-1.37-1.42-1.83-3.57-1.33-6.07.69.4,1.43.75,2.22,1.04.28,1,.77,1.9,1.48,2.64.78.81,1.77,1.38,2.92,1.69.28.78.62,1.52,1.01,2.21-.63.12-1.24.18-1.84.18-1.85,0-3.39-.59-4.46-1.69ZM859.08,68.67c0,6.66-3.49,12.08-7.79,12.08h0c-1.94,0-3.78-1.11-5.23-3.15,2.43-.72,4.89-2.19,7-4.22.62-.6,1.19-1.23,1.71-1.87.45-.37.9-.75,1.32-1.16,1.13-1.1,2.1-2.3,2.89-3.55.06.61.09,1.23.09,1.87ZM860.04,62.01c-.15.66-.36,1.31-.63,1.97-.41-1.58-1.02-3.01-1.78-4.22-.24-.43-.53-.84-.87-1.23-.12-.15-.25-.3-.38-.44-.08-.09-.17-.16-.26-.24-.54-.54-1.11-.98-1.72-1.33-1.16-.73-2.52-1.33-4.02-1.74,1.33-.5,2.67-.78,3.93-.78,1.85,0,3.39.58,4.45,1.69,1.42,1.47,1.87,3.72,1.29,6.33Z"/>
    </g>
  </g>
</svg>