<?xml version="1.0" encoding="UTF-8"?>
<svg id="Layer_3" data-name="Layer 3" xmlns="http://www.w3.org/2000/svg" xmlns:xlink="http://www.w3.org/1999/xlink" viewBox="0 0 2821.42 362.98">
  <defs>
    <style>
      .cls-1 {
        font-family: Lato-Regular, Lato;
        font-size: 112px;
      }

      .cls-2 {
        fill: url(#radial-gradient-6);
      }

      .cls-3 {
        fill: url(#radial-gradient-5);
      }

      .cls-4 {
        fill: url(#radial-gradient-4);
      }

      .cls-5 {
        fill: url(#radial-gradient-3);
      }

      .cls-6 {
        fill: url(#radial-gradient-2);
      }

      .cls-7 {
        fill: url(#linear-gradient-8);
      }

      .cls-8 {
        fill: url(#linear-gradient-7);
      }

      .cls-9 {
        fill: url(#linear-gradient-5);
      }

      .cls-10 {
        fill: url(#linear-gradient-6);
      }

      .cls-11 {
        fill: url(#linear-gradient-9);
      }

      .cls-12 {
        fill: url(#linear-gradient-4);
      }

      .cls-13 {
        fill: url(#linear-gradient-3);
      }

      .cls-14 {
        fill: url(#linear-gradient-2);
      }

      .cls-15 {
        fill: url(#radial-gradient);
      }

      .cls-16 {
        fill: url(#linear-gradient);
      }

      .cls-17 {
        letter-spacing: -.01em;
      }

      .cls-17, .cls-18 {
        fill: #79cba3;
      }

      .cls-19 {
        fill: #4fbfd8;
      }

      .cls-20 {
        letter-spacing: -.02em;
      }

      .cls-20, .cls-21, .cls-22, .cls-23, .cls-24, .cls-25 {
        fill: #fff;
      }

      .cls-21 {
        letter-spacing: -.03em;
      }

      .cls-26 {
        fill: #c63a8e;
      }

      .cls-22 {
        letter-spacing: 0em;
      }

      .cls-23 {
        letter-spacing: 0em;
      }

      .cls-25 {
        letter-spacing: 0em;
      }

      .cls-27 {
        fill: url(#linear-gradient-10);
      }

      .cls-28 {
        fill: url(#linear-gradient-11);
      }

      .cls-29 {
        fill: url(#linear-gradient-12);
      }

      .cls-30 {
        fill: url(#linear-gradient-13);
      }

      .cls-31 {
        fill: url(#linear-gradient-14);
      }

      .cls-32 {
        fill: url(#linear-gradient-15);
      }

      .cls-33 {
        fill: url(#linear-gradient-16);
      }
    </style>
    <radialGradient id="radial-gradient" cx="848.33" cy="181.18" fx="848.33" fy="181.18" r="41.8" gradientUnits="userSpaceOnUse">
      <stop offset="0" stop-color="#4fbfd8"/>
      <stop offset=".36" stop-color="#4fbfd6"/>
      <stop offset=".49" stop-color="#50c0cf"/>
      <stop offset=".58" stop-color="#53c3c3"/>
      <stop offset=".65" stop-color="#56c6b2"/>
      <stop offset=".71" stop-color="#5bcaa0"/>
    </radialGradient>
    <linearGradient id="linear-gradient" x1="857.94" y1="202.96" x2="863.44" y2="217.48" gradientUnits="userSpaceOnUse">
      <stop offset="0" stop-color="#c63a8e"/>
      <stop offset=".47" stop-color="#c4398d"/>
      <stop offset=".64" stop-color="#bd388c"/>
      <stop offset=".75" stop-color="#b1358b"/>
      <stop offset=".85" stop-color="#a03289"/>
      <stop offset=".93" stop-color="#8a2d86"/>
      <stop offset="1" stop-color="#732983"/>
    </linearGradient>
    <linearGradient id="linear-gradient-2" x1="839.68" y1="200.14" x2="835.51" y2="218.93" xlink:href="#linear-gradient"/>
    <linearGradient id="linear-gradient-3" x1="870.06" y1="187.91" x2="886.97" y2="197.95" xlink:href="#linear-gradient"/>
    <linearGradient id="linear-gradient-4" x1="867.43" y1="172.1" x2="892.29" y2="166.3" xlink:href="#linear-gradient"/>
    <linearGradient id="linear-gradient-5" x1="857.69" y1="162.84" x2="861.58" y2="142.89" xlink:href="#linear-gradient"/>
    <linearGradient id="linear-gradient-6" x1="837.76" y1="162.38" x2="834.94" y2="144.25" xlink:href="#linear-gradient"/>
    <linearGradient id="linear-gradient-7" x1="827.55" y1="177.23" x2="810.71" y2="165.82" xlink:href="#linear-gradient"/>
    <linearGradient id="linear-gradient-8" x1="826.06" y1="193.03" x2="805.34" y2="194.04" xlink:href="#linear-gradient"/>
    <radialGradient id="radial-gradient-2" cx="866.86" cy="150.78" fx="842.06" fy="128.59" r="42.33" gradientTransform="translate(0 10.97) scale(1 .93)" gradientUnits="userSpaceOnUse">
      <stop offset=".5" stop-color="#5bcaa0"/>
      <stop offset=".59" stop-color="#819599"/>
      <stop offset=".72" stop-color="#c63a8e"/>
    </radialGradient>
    <radialGradient id="radial-gradient-3" cx="855.63" cy="230.46" fx="855.63" fy="230.46" r="69.32" gradientUnits="userSpaceOnUse">
      <stop offset=".46" stop-color="#5bcaa0"/>
      <stop offset=".54" stop-color="#809799"/>
      <stop offset=".65" stop-color="#b25491"/>
      <stop offset=".7" stop-color="#c63a8e"/>
    </radialGradient>
    <radialGradient id="radial-gradient-4" cx="2649.55" cy="180.54" fx="2649.55" fy="180.54" r="125.95" xlink:href="#radial-gradient"/>
    <linearGradient id="linear-gradient-9" x1="2678.52" y1="246.2" x2="2695.08" y2="289.93" xlink:href="#linear-gradient"/>
    <linearGradient id="linear-gradient-10" x1="2623.49" y1="237.7" x2="2610.93" y2="294.3" xlink:href="#linear-gradient"/>
    <linearGradient id="linear-gradient-11" x1="2715.04" y1="200.82" x2="2766.01" y2="231.1" xlink:href="#linear-gradient"/>
    <linearGradient id="linear-gradient-12" x1="2707.13" y1="153.19" x2="2782.01" y2="135.71" xlink:href="#linear-gradient"/>
    <linearGradient id="linear-gradient-13" x1="2677.76" y1="125.29" x2="2689.5" y2="65.19" xlink:href="#linear-gradient"/>
    <linearGradient id="linear-gradient-14" x1="2617.73" y1="123.9" x2="2609.21" y2="69.28" xlink:href="#linear-gradient"/>
    <linearGradient id="linear-gradient-15" x1="2586.95" y1="168.65" x2="2536.2" y2="134.28" xlink:href="#linear-gradient"/>
    <linearGradient id="linear-gradient-16" x1="2582.45" y1="216.26" x2="2520.04" y2="219.32" xlink:href="#linear-gradient"/>
    <radialGradient id="radial-gradient-5" cx="2705.41" cy="88.95" fx="2630.68" fy="22.1" r="127.54" gradientTransform="translate(0 6.47) scale(1 .93)" xlink:href="#radial-gradient-2"/>
    <radialGradient id="radial-gradient-6" cx="2671.58" cy="329.06" fx="2671.58" fy="329.06" r="208.87" xlink:href="#radial-gradient-3"/>
  </defs>
  <text class="cls-1" transform="translate(0 211.36)"><tspan class="cls-18" x="0" y="0">biz</tspan><tspan class="cls-17" x="140.22" y="0">z</tspan><tspan class="cls-24" x="189.62" y="0">NES</tspan><tspan class="cls-21" x="400.57" y="0">T</tspan><tspan class="cls-25" x="463.34" y="0"> </tspan><tspan class="cls-22" x="492.01" y="0">F</tspan><tspan class="cls-24" x="554.34" y="0">l</tspan><tspan class="cls-23" x="580.77" y="0">o</tspan><tspan class="cls-20" x="643.44" y="0">w</tspan></text>
  <g>
    <path class="cls-15" d="M870.62,160.75c-4,.06-7.49,1.12-7.49,1.12-2.04.62-3.67,1.39-4.8,2.01-.59-.39-1.37-.82-2.34-1.18-.84-.31-1.6-.49-2.24-.6.3-.51.83-1.35,1.56-2.34,3.93-5.3,8.89-8.03,11.38-9.37.73-.39,1.84-.96,3.24-1.56-2.38-1.93-4.76-3.87-7.14-5.8-3.11,1.21-8.19,3.66-13.02,8.49-3.82,3.82-6.09,7.74-7.4,10.48-.68.24-1.41.52-2.18.88-.81.37-1.53.76-2.17,1.13-.05-1.51-.31-11.24,1.12-14.17.11-.22.22-.45.22-.45,1.03-2,2.12-3.44,2.9-4.35-3.98-.19-7.96-.37-11.94-.56-.31.81-.72,1.95-1.12,3.35-2.15,7.51-1.59,13.64-1.44,15.07.25,2.4.85,5.76,2.33,9.59-.26.57-.52,1.19-.76,1.85-.33.88-.59,1.72-.8,2.5-2.05-1.27-4.57-3.15-6.97-5.86-.72-.81-2.71-3.14-4.52-6.64-.77-1.48-1.31-2.8-1.67-3.79-2.38,2.05-4.76,4.09-7.14,6.14,1.02,3.33,4.02,11.47,12.11,17.24,3.25,2.32,6.45,3.63,8.98,4.4.2.62.47,1.31.83,2.04.24.48.49.92.73,1.31-2.42.54-6.19,1.07-10.74.5-4.46-.56-7.92-1.97-10.12-3.07-2.59-1.04-5.31-.21-6.36,1.56-1.35,2.28.41,5.43,1.67,6.25,1.22.79,2.28,1.52,3.66,2.2,2.2,1.08,4.07,1.52,4.76,1.7,6.68,1.72,13.56,1.23,13.56,1.23,4.69-.33,8.72-1.39,11.94-2.57.53.28,1.14.56,1.81.82.71.27,1.38.48,1.98.63-2.27,3.59-4.72,6.13-6.58,7.81-2.55,2.3-4.85,3.73-5.91,4.35-2.88,1.69-5.54,2.71-7.59,3.35,5.24.97,10.49,1.93,15.73,2.9,2.76-1.62,6.9-4.53,10.6-9.37,2.61-3.42,4.18-6.74,5.13-9.26.61-.21,1.26-.46,1.95-.76.65-.29,1.24-.59,1.77-.88.41,1.95.72,4.4.63,7.22-.18,5.25-1.7,9.38-2.9,11.94,3.64-.82,7.29-1.64,10.93-2.45,1.02-2.98,2.29-7.92,1.9-14.06-.3-4.62-1.44-8.36-2.45-10.93.22-.42.44-.91.65-1.45.28-.73.46-1.41.58-2.01,2.39,1.06,5.53,2.88,8.33,5.98,1.42,1.58,2.37,3.07,2.94,4.06,1.71,2.98,2.45,5.74,2.79,7.59,2.01-2.63,4.01-5.25,6.02-7.88-2.18-4.63-6.2-11.35-13.39-17-2.23-1.75-4.42-3.14-6.47-4.24-.17-.63-.39-1.33-.69-2.07-.28-.69-.58-1.3-.87-1.83.79-.36,1.97-.84,3.46-1.23,7.67-1.99,14.29.92,16.18,1.79,1.86.85,4.64,2.39,7.47,5.13.07-2.57.15-5.13.22-7.7-9.22-6.52-17.97-9.23-22.85-9.15Z"/>
    <path class="cls-16" d="M866.25,190.77c.93,2.33,1.84,5.26,2.34,8.7,1.08,7.43-.29,13.6-1.45,17.29-1.69.76-3.75,1.53-6.14,2.12-3.75.92-7.07,1.08-9.59,1,.51-.33,1.03-.7,1.56-1.12,2.16-1.71,3.66-3.61,4.69-5.24,2.49-3.33,5.61-8.46,7.36-15.28.7-2.72,1.06-5.25,1.23-7.47Z"/>
    <path class="cls-14" d="M854.43,200.7c-.77,2.03-1.84,4.32-3.35,6.69-3.86,6.09-8.72,9.8-12.03,11.88-2.26.21-5.36.25-8.94-.39-3.74-.67-6.73-1.87-8.81-2.9,1.48-.27,3.13-.66,4.91-1.23,1.62-.52,3.08-1.1,4.35-1.67,4.79-.96,11.48-3.02,18.19-7.7,2.2-1.54,4.09-3.14,5.69-4.69Z"/>
    <path class="cls-13" d="M867.7,175.82c3.72,1.64,9.13,4.6,14.28,9.82,3.07,3.11,5.26,6.21,6.81,8.81-.35,1.55-1.25,4.48-3.68,7.25-1.58,1.8-3.26,2.91-4.46,3.57-.09-1.8-.41-3.94-1.23-6.25-.21-.59-.43-1.15-.67-1.67-.94-3.39-2.42-7.56-4.8-12.05-2.05-3.86-4.26-7.01-6.25-9.48Z"/>
    <path class="cls-12" d="M858.33,163.88c1.19-.63,2.81-1.41,4.8-2.12.29-.1,4.78-1.67,9.82-2.01,9.02-.6,17.12,2.95,19.41,4.02.68,2.17,1.33,5.15,1.34,8.7,0,1.93-.19,3.66-.45,5.13-1.18-1.01-2.55-2.08-4.13-3.12-1.16-.77-2.29-1.44-3.35-2.01-2.73-1.93-6.64-4.27-11.71-6.02-6.36-2.2-11.97-2.6-15.73-2.57Z"/>
    <path class="cls-9" d="M842.38,161.99c.81-1.71,1.8-3.51,3.01-5.36,4.33-6.58,9.65-10.8,13.72-13.39,2.36-.12,5.53-.03,9.17.76,3.31.72,6.01,1.82,8.01,2.81-1.22.28-2.53.64-3.9,1.12-2.18.75-4.08,1.61-5.69,2.45-2.27.24-4.84.71-7.59,1.56-7.97,2.47-13.52,6.92-16.74,10.04Z"/>
    <path class="cls-10" d="M830.1,172.47c-1.06-2.68-2.29-6.71-2.57-11.71-.32-5.89.82-10.66,1.79-13.61,2.65-1.28,6.15-2.61,10.38-3.35,1.89-.33,3.65-.5,5.24-.56-.9.65-1.96,1.53-3.01,2.68-1.29,1.41-2.18,2.79-2.79,3.9-2.22,2.14-6.46,6.82-8.26,14.06-.83,3.35-.92,6.32-.78,8.59Z"/>
    <path class="cls-8" d="M829.32,188.32c-2.88-.89-7.45-2.69-12.05-6.47-5.43-4.46-8.25-9.51-9.59-12.38.91-1.96,2.08-4.16,3.57-6.47,1.43-2.21,2.88-4.1,4.24-5.69.06,1.11.21,2.44.56,3.9.29,1.2.64,2.24,1,3.12.53,4.13,2.01,10.91,6.69,17.63,1.84,2.63,3.79,4.73,5.58,6.36Z"/>
    <path class="cls-7" d="M839.25,199.47c-.51.19-1.03.38-1.56.56-7.07,2.38-17.42,3.99-31.24.45-.82-.79-3.58-3.66-4.07-8.28-.38-3.58.82-6.33,1.39-7.45.96.95,2.22,2.02,3.79,3.01.86.54,1.69.98,2.45,1.34,3.03,2.64,8.66,6.81,16.8,8.99,4.9,1.31,9.24,1.51,12.43,1.38Z"/>
    <path class="cls-19" d="M853.64,219.89c3.16,2.94,6.32,5.88,9.48,8.81,2.61-1.12,28.78-12.46,35.7-23.09,1.04-1.6,1.9-3.24,1.9-3.24,1.78-3.68,4.16-9.82,4.57-17.74.3-5.63-.49-10.36-1.34-13.72-4.12,5.61-8.24,11.22-12.36,16.83-.48,1.66-1.32,4.05-2.81,6.71-.51.91-.91,1.52-1.45,2.34-2.82,4.31-5.59,7.32-6.69,8.48-1.06,1.12-2.46,2.51-4.2,4.02-3.21,2.52-7.72,5.48-13.54,7.81-3.38,1.35-6.52,2.22-9.26,2.79Z"/>
    <path class="cls-19" d="M843.05,143.35c-3.27-3.38-6.55-6.77-9.82-10.15-5.97,1.39-18.8,5.31-28.39,17.09-.54.67-3.16,3.92-5.63,8.79-1.37,2.69-9.24,18.76-4.13,36.48.22.77.42,1.39.56,1.79,3.12-6.92,6.24-13.83,9.36-20.75.69-2.37,1.81-5.5,3.64-8.93,1.87-3.5,3.72-5.89,4.18-6.46,3.86-4.9,8.02-7.64,11.05-9.59,3.93-2.54,10.34-6.04,19.19-8.26Z"/>
    <path class="cls-26" d="M821.29,215.99c3.64,2.15,8.19,4.43,13.61,6.36,3.96,1.41,7.66,2.36,10.93,3.01.04-1.9.08-3.79.11-5.69-3.58-.11-7.57-.41-11.87-1.02-4.76-.68-9.04-1.63-12.79-2.66Z"/>
    <path class="cls-26" d="M876.29,146.81c-3.18-2.43-8.05-5.55-14.58-7.68-4.3-1.4-8.19-2-11.3-2.25v6.25c3.15-.15,6.79-.12,10.79.32,5.99.65,11.08,1.99,15.1,3.37Z"/>
    <path class="cls-26" d="M844.94,143.24c-2.96-2.54-5.8-4.97-5.92-5.07-.45-.39-5.34-4.58-5.8-4.97-4.6.91-13.98,3.42-22.76,11.16-5.87,5.17-9.27,10.75-11.16,14.5,1.9-1.16,4.47-2.65,7.6-4.22,2.11-1.05,4.12-1.94,6.48-2.96,6.34-2.74,11.38-4.78,17.95-6.37,4.89-1.18,8.9-1.63,10.34-1.79,1.33-.14,2.45-.23,3.27-.28Z"/>
    <path class="cls-26" d="M851.41,219.89c3.79,3.38,7.59,6.77,11.38,10.15,6.37-1.54,11.44-3.67,15.06-5.47,5.17-2.57,10.78-6.13,13.54-9.04,2.57-2.7,5.44-6.42,5.44-6.42h0s0,0,0,0c.74-1,1.5-2.16,2.25-3.47.65-1.15,1.19-2.25,1.64-3.27-2.53,1.94-5.86,4.26-9.97,6.54-1.74.97-6.99,3.8-14.35,6.29-5.71,1.93-14.23,4.16-24.99,4.69Z"/>
    <path class="cls-6" d="M895.06,151.61c-2.17-2.97-4.27-5.14-5.06-5.94-2.62-2.66-6.15-5.67-10.83-8.45-1.51-.9-7.6-4.47-16.54-6.69-3.55-.88-8.44-1.78-14.35-1.9v-7.37l-12.74,10.92,12.74,10.92v-7.88c2.61.07,6.08.38,10.04,1.36,1.5.37,6.42,1.72,12.38,5,3.4,1.87,11.24,6.3,16.8,14.95,2.06,3.2,3.41,6.36,4.28,9.3.45,1.52,2.08,7.36,1.19,15.02-.7,5.98-2.64,10.63-4.19,13.61,2.85-2.71,6.34-6.57,9.53-11.71,2.71-4.37,4.48-8.48,5.64-11.83-2.42-9.51-6.38-15.86-8.9-19.3Z"/>
    <path class="cls-5" d="M860.45,230.94c-4.12-3.68-8.23-7.36-12.35-11.05v7.39c-4.17-.54-9.31-1.61-14.86-3.8-5.66-2.22-14.47-5.69-21.28-14.53-2.53-3.28-8.11-11.8-7.95-23.67.09-7.24,2.29-12.83,3.78-15.94-2.73,3.3-6.11,8.11-8.79,14.5-1.99,4.73-3.07,9.06-3.68,12.56,1.42,4.7,4.79,13.37,12.98,21.36,7.78,7.59,16.02,10.78,19.71,12.16,9.11,3.42,16.98,3.84,20.09,3.9v7.89c4.12-3.6,8.23-7.19,12.35-10.79Z"/>
    <path class="cls-24" d="M859.42,170.3c-1.24-1.29-3.01-1.97-5.12-1.97-1.75,0-3.63.48-5.46,1.35-1.08-.2-2.21-.3-3.38-.3-7.17,0-13.01,3.91-13.01,8.71,0,2.3,1.31,4.45,3.69,6.08,0,.02-.01.04-.01.05-.66,2.92-.12,5.47,1.52,7.17,1.25,1.29,3.02,1.97,5.12,1.97.76,0,1.55-.09,2.34-.27,1.64,2.47,3.83,3.83,6.18,3.83h0c4.8,0,8.71-5.83,8.71-13.01,0-1.1-.09-2.16-.26-3.18.54-1.07.95-2.17,1.2-3.27.66-2.92.12-5.47-1.52-7.17ZM833.38,178.09c0-4.29,5.42-7.79,12.08-7.79.69,0,1.36.04,2.01.11-1.21.72-2.39,1.61-3.47,2.65-.61.59-1.17,1.21-1.68,1.85-.46.37-.92.77-1.36,1.19-2.19,2.11-3.78,4.61-4.57,7.13-1.95-1.43-3.02-3.23-3.02-5.14ZM858.78,180.58c-.51.96-1.14,1.9-1.89,2.8.4-.85.71-1.71.93-2.57.29-.58.49-1.19.58-1.81.15.51.27,1.03.37,1.58ZM845.56,192.05c-.33-.56-.62-1.16-.88-1.79.36.05.74.08,1.13.08,1.77,0,3.67-.49,5.52-1.38-1.81,1.49-3.81,2.56-5.77,3.1ZM845.81,189.41c-.52,0-1.01-.05-1.48-.14-.26-.81-.46-1.67-.6-2.55.57.05,1.15.09,1.74.09h0c4.29,0,8.09-1.4,10.46-3.55-.49.98-1.1,1.94-1.83,2.86-2.63,2.09-5.63,3.3-8.3,3.3ZM842.98,175.57c.94-.74,1.92-1.37,2.92-1.87-.29.34-.56.7-.82,1.09-1.61,2.44-2.49,5.69-2.49,9.13,0,.59.04,1.17.09,1.74-.94-.14-1.85-.36-2.7-.64-.57-2.75.52-6.3,3.01-9.45ZM838.99,184.65c-.63-.26-1.22-.56-1.77-.89.54-1.88,1.57-3.76,2.99-5.47-1.04,2.2-1.47,4.42-1.22,6.36ZM851.26,172.29c1.85,0,3.38.58,4.45,1.69,0,0,0,0,0,.01,1.41,1.47,1.87,3.71,1.28,6.32-.02.08-.04.15-.06.22-1.59,3.1-6.13,5.35-11.47,5.35h-.01c-.63,0-1.25-.04-1.85-.1-.06-.61-.1-1.23-.1-1.86,0-3.26.83-6.32,2.34-8.62.74-1.12,1.59-1.99,2.52-2.58.99-.28,1.96-.43,2.9-.43ZM842.78,186.61c.11.81.28,1.6.49,2.36-.74-.28-1.38-.7-1.91-1.25-.46-.48-.79-1.03-1.05-1.64.79.23,1.62.4,2.47.52ZM847.99,171.87c-.74.22-1.49.51-2.23.87,1.02-.84,2.11-1.55,3.22-2.1.48.1.95.21,1.41.34-.83.13-1.64.43-2.4.89ZM838.32,190.76c-1.37-1.42-1.83-3.57-1.33-6.07.69.4,1.43.75,2.22,1.04.28,1,.77,1.9,1.48,2.64.78.81,1.77,1.38,2.92,1.69.28.78.62,1.52,1.01,2.21-.63.12-1.24.18-1.84.18-1.85,0-3.39-.59-4.46-1.69ZM859.08,183.92c0,6.66-3.49,12.08-7.79,12.08h0c-1.94,0-3.78-1.11-5.23-3.15,2.43-.72,4.89-2.19,7-4.22.62-.6,1.19-1.23,1.71-1.87.45-.37.9-.75,1.32-1.16,1.13-1.1,2.1-2.3,2.89-3.55.06.61.09,1.23.09,1.87ZM860.04,177.26c-.15.66-.36,1.31-.63,1.97-.41-1.58-1.02-3.01-1.78-4.22-.24-.43-.53-.84-.87-1.23-.12-.15-.25-.3-.38-.44-.08-.09-.17-.16-.26-.24-.54-.54-1.11-.98-1.72-1.33-1.16-.73-2.52-1.33-4.02-1.74,1.33-.5,2.67-.78,3.93-.78,1.85,0,3.39.58,4.45,1.69,1.42,1.47,1.87,3.72,1.29,6.33Z"/>
  </g>
  <text class="cls-1" transform="translate(1170.96 211.36)"><tspan class="cls-18" x="0" y="0">biz</tspan><tspan class="cls-17" x="140.22" y="0">z</tspan><tspan class="cls-24" x="189.62" y="0">NES</tspan><tspan class="cls-21" x="400.57" y="0">T</tspan><tspan class="cls-25" x="463.34" y="0"> </tspan><tspan class="cls-22" x="492.01" y="0">F</tspan><tspan class="cls-24" x="554.34" y="0">l</tspan><tspan class="cls-23" x="580.77" y="0">o</tspan><tspan class="cls-20" x="643.44" y="0">w</tspan></text>
  <g>
    <path class="cls-4" d="M2716.73,119.01c-12.06.18-22.57,3.38-22.57,3.38-6.16,1.87-11.05,4.2-14.46,6.05-1.79-1.17-4.14-2.48-7.04-3.57-2.52-.95-4.83-1.49-6.74-1.81.91-1.53,2.5-4.08,4.71-7.06,11.84-15.96,26.79-24.2,34.29-28.24,2.2-1.18,5.53-2.89,9.75-4.71-7.17-5.83-14.34-11.65-21.52-17.48-9.37,3.66-24.68,11.04-39.23,25.58-11.52,11.51-18.35,23.31-22.29,31.57-2.04.71-4.24,1.58-6.56,2.64-2.43,1.11-4.61,2.28-6.55,3.41-.14-4.54-.92-33.87,3.36-42.69.32-.66.67-1.34.67-1.34,3.1-6.04,6.39-10.35,8.74-13.11-11.99-.56-23.98-1.12-35.97-1.68-.93,2.43-2.16,5.88-3.36,10.09-6.49,22.64-4.79,41.1-4.33,45.4.77,7.25,2.55,17.35,7.02,28.89-.78,1.72-1.56,3.58-2.3,5.57-.99,2.66-1.78,5.19-2.41,7.54-6.18-3.83-13.76-9.48-21-17.64-2.16-2.43-8.16-9.45-13.63-20.01-2.31-4.47-3.94-8.43-5.04-11.43-7.17,6.16-14.34,12.33-21.52,18.49,3.07,10.04,12.11,34.56,36.49,51.95,9.8,6.99,19.44,10.95,27.05,13.27.61,1.87,1.42,3.94,2.51,6.14.72,1.45,1.46,2.76,2.2,3.95-7.28,1.62-18.65,3.24-32.37,1.51-13.44-1.69-23.88-5.94-30.49-9.24-7.81-3.12-16-.64-19.16,4.71-4.07,6.88,1.23,16.35,5.04,18.83,3.69,2.39,6.86,4.57,11.02,6.62,6.62,3.25,12.25,4.59,14.36,5.14,20.12,5.17,40.85,3.71,40.85,3.71,14.13-1,26.28-4.18,35.97-7.73,1.6.83,3.42,1.68,5.46,2.46,2.14.83,4.15,1.44,5.97,1.91-6.85,10.81-14.23,18.49-19.83,23.53-7.7,6.94-14.61,11.22-17.82,13.11-8.66,5.1-16.68,8.18-22.86,10.09,15.8,2.91,31.6,5.83,47.4,8.74,8.3-4.88,20.81-13.65,31.94-28.24,7.87-10.32,12.6-20.31,15.46-27.9,1.84-.62,3.81-1.38,5.88-2.3,1.95-.87,3.73-1.76,5.34-2.65,1.23,5.87,2.18,13.25,1.89,21.76-.54,15.81-5.12,28.26-8.74,35.97,10.98-2.47,21.96-4.93,32.95-7.4,3.08-8.97,6.9-23.86,5.71-42.36-.9-13.93-4.33-25.2-7.4-32.95.66-1.28,1.33-2.73,1.95-4.36.83-2.21,1.38-4.26,1.75-6.06,7.19,3.18,16.67,8.67,25.1,18.03,4.29,4.76,7.15,9.26,8.86,12.23,5.16,8.97,7.37,17.3,8.4,22.86,6.05-7.91,12.1-15.82,18.14-23.73-6.58-13.95-18.67-34.21-40.33-51.23-6.71-5.27-13.33-9.45-19.5-12.77-.5-1.89-1.17-3.99-2.08-6.24-.84-2.08-1.75-3.92-2.63-5.52,2.38-1.08,5.94-2.53,10.42-3.7,23.12-6.01,43.05,2.77,48.75,5.38,5.61,2.57,13.99,7.2,22.52,15.46.22-7.73.45-15.46.67-23.2-27.79-19.66-54.15-27.81-68.86-27.59Z"/>
    <path class="cls-11" d="M2703.57,209.46c2.81,7.03,5.56,15.85,7.06,26.22,3.25,22.39-.87,40.98-4.37,52.11-5.1,2.3-11.29,4.62-18.49,6.39-11.3,2.77-21.3,3.26-28.91,3.03,1.54-.99,3.12-2.11,4.71-3.36,6.52-5.14,11.03-10.88,14.12-15.8,7.49-10.04,16.9-25.49,22.19-46.06,2.11-8.2,3.2-15.81,3.7-22.52Z"/>
    <path class="cls-27" d="M2667.93,239.38c-2.33,6.12-5.55,13.02-10.09,20.17-11.63,18.36-26.28,29.54-36.25,35.81-6.82.62-16.14.77-26.95-1.18-11.27-2.03-20.27-5.64-26.56-8.74,4.45-.82,9.44-1.99,14.79-3.7,4.9-1.56,9.28-3.3,13.11-5.04,14.42-2.9,34.61-9.09,54.8-23.2,6.63-4.63,12.31-9.46,17.14-14.12Z"/>
    <path class="cls-28" d="M2707.94,164.41c11.22,4.95,27.5,13.86,43.03,29.58,9.24,9.36,15.85,18.73,20.51,26.56-1.07,4.68-3.77,13.5-11.09,21.85-4.76,5.42-9.82,8.77-13.45,10.76-.28-5.42-1.25-11.88-3.7-18.83-.63-1.78-1.31-3.47-2.02-5.04-2.83-10.22-7.29-22.78-14.46-36.31-6.17-11.63-12.83-21.13-18.83-28.57Z"/>
    <path class="cls-29" d="M2679.7,128.44c3.57-1.91,8.46-4.25,14.46-6.39.87-.31,14.41-5.05,29.58-6.05,27.17-1.8,51.58,8.89,58.49,12.1,2.04,6.55,4.02,15.51,4.03,26.22,0,5.82-.56,11.03-1.34,15.46-3.56-3.05-7.69-6.26-12.44-9.41-3.5-2.33-6.89-4.33-10.09-6.05-8.22-5.82-20.02-12.86-35.3-18.15-19.16-6.63-36.06-7.83-47.4-7.73Z"/>
    <path class="cls-30" d="M2631.63,122.72c2.44-5.15,5.42-10.59,9.08-16.14,13.05-19.81,29.09-32.53,41.35-40.34,7.1-.35,16.67-.1,27.64,2.3,9.98,2.18,18.11,5.49,24.13,8.46-3.66.85-7.61,1.94-11.77,3.36-6.57,2.25-12.3,4.84-17.14,7.4-6.84.74-14.58,2.15-22.86,4.71-24.03,7.43-40.73,20.85-50.43,30.26Z"/>
    <path class="cls-31" d="M2594.65,154.32c-3.19-8.08-6.91-20.2-7.73-35.3-.97-17.76,2.48-32.11,5.38-41.01,7.99-3.85,18.52-7.85,31.26-10.09,5.69-1,10.99-1.49,15.8-1.68-2.72,1.96-5.9,4.6-9.08,8.07-3.89,4.24-6.57,8.4-8.4,11.77-6.7,6.44-19.45,20.56-24.88,42.36-2.51,10.09-2.76,19.06-2.35,25.89Z"/>
    <path class="cls-32" d="M2592.29,202.06c-8.67-2.67-22.46-8.12-36.31-19.5-16.36-13.45-24.87-28.65-28.91-37.32,2.75-5.92,6.26-12.54,10.76-19.5,4.3-6.66,8.68-12.36,12.77-17.14.17,3.34.63,7.34,1.68,11.77.86,3.6,1.94,6.75,3.03,9.41,1.59,12.45,6.06,32.87,20.17,53.12,5.53,7.93,11.43,14.24,16.81,19.16Z"/>
    <path class="cls-33" d="M2622.21,235.68c-1.55.58-3.12,1.14-4.71,1.68-21.29,7.18-52.49,12.02-94.13,1.34-2.47-2.39-10.8-11.04-12.26-24.94-1.13-10.8,2.48-19.08,4.19-22.46,2.91,2.87,6.68,6.08,11.43,9.08,2.59,1.63,5.09,2.96,7.4,4.03,9.14,7.96,26.11,20.53,50.61,27.1,14.77,3.96,27.83,4.54,37.47,4.17Z"/>
    <path class="cls-19" d="M2665.58,297.2c9.52,8.85,19.05,17.71,28.57,26.56,7.88-3.37,86.71-37.54,107.58-69.59,3.13-4.81,5.71-9.75,5.71-9.75,5.35-11.09,12.52-29.6,13.78-53.45.9-16.97-1.48-31.2-4.03-41.35-12.41,16.91-24.83,33.82-37.24,50.73-1.46,5-3.99,12.2-8.48,20.21-1.54,2.74-2.75,4.59-4.37,7.06-8.51,12.98-16.85,22.05-20.17,25.55-3.19,3.37-7.42,7.55-12.66,12.1-9.68,7.58-23.25,16.51-40.79,23.53-10.17,4.07-19.65,6.69-27.9,8.4Z"/>
    <path class="cls-19" d="M2633.64,66.58c-9.86-10.2-19.72-20.39-29.58-30.59-18,4.18-56.65,16-85.55,51.5-1.64,2.01-9.51,11.81-16.98,26.49-4.11,8.1-27.85,56.53-12.44,109.93.67,2.31,1.28,4.19,1.68,5.38,9.4-20.84,18.81-41.69,28.21-62.53,2.08-7.15,5.44-16.56,10.98-26.92,5.64-10.56,11.21-17.73,12.58-19.48,11.64-14.78,24.18-23.03,33.28-28.91,11.85-7.66,31.16-18.19,57.82-24.88Z"/>
    <path class="cls-26" d="M2568.09,285.43c10.98,6.47,24.68,13.36,41.01,19.16,11.95,4.24,23.08,7.11,32.95,9.08.11-5.72.23-11.43.34-17.15-10.8-.32-22.8-1.22-35.75-3.09-14.33-2.06-27.24-4.92-38.55-8.01Z"/>
    <path class="cls-26" d="M2733.82,77c-9.58-7.32-24.26-16.73-43.95-23.15-12.95-4.22-24.67-6.04-34.05-6.77v18.83c9.5-.46,20.45-.35,32.5.95,18.05,1.95,33.4,5.99,45.49,10.14Z"/>
    <path class="cls-26" d="M2639.36,66.25c-8.92-7.64-17.47-14.97-17.83-15.28-1.36-1.16-16.09-13.79-17.47-14.98-13.85,2.73-42.14,10.31-68.58,33.62-17.67,15.58-27.93,32.38-33.62,43.7,5.72-3.51,13.46-7.99,22.89-12.7,6.36-3.18,12.41-5.84,19.52-8.91,19.11-8.26,34.28-14.41,54.08-19.21,14.72-3.56,26.81-4.93,31.16-5.39,4.01-.43,7.39-.69,9.85-.85Z"/>
    <path class="cls-26" d="M2658.86,297.2c11.43,10.2,22.86,20.39,34.29,30.59,19.2-4.65,34.48-11.07,45.38-16.47,15.59-7.73,32.47-18.47,40.81-27.23,7.75-8.15,16.4-19.34,16.4-19.34,0,0,0,0,0,0,0,0,0,0,0,0,2.21-3.01,4.53-6.5,6.78-10.46,1.97-3.47,3.59-6.79,4.94-9.87-7.62,5.84-17.67,12.83-30.04,19.72-5.24,2.92-21.05,11.44-43.25,18.94-17.2,5.81-42.87,12.53-75.3,14.12Z"/>
    <path class="cls-3" d="M2790.39,91.46c-6.55-8.96-12.86-15.5-15.23-17.91-7.88-8.01-18.53-17.09-32.64-25.45-4.56-2.7-22.91-13.46-49.83-20.17-10.69-2.66-25.43-5.36-43.24-5.71V0l-38.39,32.89,38.39,32.89v-23.74c7.86.21,18.32,1.14,30.26,4.09,4.51,1.11,19.35,5.19,37.3,15.07,10.26,5.65,33.88,19,50.62,45.05,6.2,9.65,10.27,19.16,12.91,28.02,1.36,4.58,6.26,22.18,3.57,45.27-2.1,18.01-7.96,32.03-12.63,41.01,8.59-8.18,19.09-19.79,28.72-35.3,8.17-13.17,13.49-25.55,17-35.63-7.28-28.65-19.22-47.78-26.81-58.16Z"/>
    <path class="cls-2" d="M2686.09,330.48c-12.4-11.09-24.8-22.19-37.2-33.28v22.28c-12.56-1.61-28.05-4.86-44.77-11.44-17.05-6.7-43.61-17.15-64.13-43.79-7.61-9.88-24.42-35.55-23.96-71.32.28-21.8,6.89-38.67,11.39-48.02-8.22,9.93-18.4,24.44-26.49,43.68-5.99,14.25-9.25,27.3-11.07,37.85,4.28,14.17,14.44,40.29,39.11,64.37,23.44,22.88,48.26,32.47,59.39,36.64,27.46,10.29,51.18,11.57,60.53,11.75v23.78c12.4-10.83,24.8-21.67,37.2-32.5Z"/>
    <path class="cls-24" d="M2682.99,147.77c-3.75-3.89-9.08-5.94-15.42-5.94-5.27,0-10.93,1.44-16.45,4.08-3.25-.59-6.66-.9-10.19-.9-21.61,0-39.19,11.77-39.19,26.24,0,6.93,3.94,13.42,11.11,18.33-.02.05-.03.11-.04.16-1.99,8.8-.36,16.49,4.58,21.61,3.76,3.9,9.09,5.95,15.43,5.95,2.29,0,4.66-.28,7.07-.81,4.94,7.43,11.54,11.53,18.61,11.53h0c14.47,0,26.24-17.58,26.24-39.19,0-3.31-.28-6.52-.79-9.59,1.64-3.24,2.87-6.55,3.62-9.85,1.99-8.81.36-16.48-4.59-21.61ZM2604.53,171.24c0-12.94,16.33-23.46,36.41-23.46,2.07,0,4.08.12,6.06.33-3.65,2.17-7.19,4.85-10.45,7.99-1.85,1.78-3.53,3.65-5.07,5.56-1.4,1.12-2.77,2.31-4.09,3.58-6.59,6.36-11.39,13.89-13.77,21.49-5.88-4.3-9.1-9.75-9.1-15.49ZM2681.05,178.74c-1.55,2.9-3.45,5.73-5.69,8.44,1.21-2.56,2.15-5.15,2.8-7.74.86-1.75,1.47-3.57,1.76-5.46.44,1.53.82,3.12,1.12,4.76ZM2641.21,213.3c-.99-1.69-1.87-3.49-2.64-5.39,1.1.14,2.22.23,3.39.23,5.34,0,11.06-1.48,16.64-4.17-5.45,4.49-11.49,7.7-17.4,9.33ZM2641.96,205.36c-1.57,0-3.06-.15-4.47-.43-.79-2.45-1.4-5.03-1.8-7.7,1.73.15,3.47.26,5.25.26h.02c12.92,0,24.39-4.21,31.53-10.69-1.47,2.96-3.32,5.86-5.51,8.62-7.91,6.29-16.98,9.94-25.02,9.94ZM2633.44,163.65c2.82-2.23,5.78-4.13,8.79-5.64-.86,1.01-1.68,2.11-2.46,3.29-4.84,7.37-7.5,17.13-7.5,27.5,0,1.78.11,3.52.26,5.25-2.83-.44-5.56-1.08-8.14-1.93-1.73-8.28,1.56-19,9.06-28.47ZM2621.41,191.01c-1.89-.78-3.67-1.69-5.33-2.7,1.63-5.67,4.73-11.33,9-16.47-3.13,6.63-4.43,13.32-3.66,19.17ZM2658.41,153.76c5.56,0,10.2,1.75,13.41,5.09,0,0,.02.01.03.03,4.26,4.42,5.63,11.19,3.86,19.04-.05.23-.12.45-.18.67-4.79,9.35-18.47,16.11-34.56,16.11h-.03c-1.9,0-3.76-.12-5.59-.3-.19-1.83-.3-3.7-.3-5.6,0-9.84,2.5-19.05,7.04-25.97,2.23-3.38,4.79-6,7.59-7.76,2.97-.85,5.92-1.3,8.74-1.3ZM2632.83,196.91c.34,2.45.83,4.83,1.47,7.12-2.22-.85-4.17-2.12-5.76-3.76-1.38-1.43-2.39-3.11-3.15-4.93,2.39.69,4.87,1.22,7.44,1.58ZM2648.53,152.5c-2.24.66-4.48,1.55-6.71,2.62,3.08-2.54,6.37-4.66,9.7-6.33,1.46.29,2.86.63,4.24,1.03-2.51.38-4.94,1.29-7.23,2.68ZM2619.4,209.41c-4.13-4.28-5.53-10.76-4.02-18.28,2.08,1.2,4.31,2.25,6.69,3.12.85,3.01,2.33,5.71,4.47,7.94,2.36,2.44,5.34,4.16,8.8,5.1.84,2.36,1.86,4.58,3.03,6.67-1.89.35-3.74.54-5.55.54-5.57,0-10.21-1.77-13.43-5.1ZM2681.97,188.81c0,20.07-10.52,36.41-23.46,36.41h0c-5.85,0-11.4-3.36-15.75-9.48,7.32-2.18,14.75-6.6,21.08-12.71,1.86-1.8,3.59-3.69,5.16-5.65,1.37-1.11,2.7-2.27,3.99-3.51,3.42-3.3,6.33-6.92,8.7-10.69.19,1.83.28,3.72.28,5.63ZM2684.86,168.76c-.45,1.98-1.08,3.96-1.89,5.93-1.23-4.77-3.07-9.07-5.37-12.72-.73-1.28-1.61-2.52-2.62-3.7-.36-.46-.74-.91-1.16-1.34-.25-.26-.52-.49-.79-.73-1.61-1.61-3.35-2.96-5.18-4.01-3.5-2.21-7.6-4-12.11-5.24,4.02-1.52,8.04-2.34,11.83-2.34,5.57,0,10.21,1.75,13.42,5.09,4.27,4.43,5.65,11.2,3.87,19.06Z"/>
  </g>
</svg>