<?xml version="1.0" encoding="UTF-8"?>
<svg id="Layer_2" xmlns="http://www.w3.org/2000/svg" xmlns:xlink="http://www.w3.org/1999/xlink" version="1.1" viewBox="0 0 905.4 132.5">
  <!-- Generator: Adobe Illustrator 29.3.0, SVG Export Plug-In . SVG Version: 2.1.0 Build 146)  -->
  <defs>
    <style>
      .st0 {
        fill: #79cba3;
      }

      .st0, .st1 {
        font-family: ArialMT, Arial;
        font-size: 112px;
      }

      .st0, .st1, .st2 {
        isolation: isolate;
      }

      .st3 {
        fill: url(#linear-gradient2);
      }

      .st4 {
        fill: url(#linear-gradient1);
      }

      .st5 {
        fill: url(#linear-gradient3);
      }

      .st6 {
        fill: url(#linear-gradient6);
      }

      .st7 {
        fill: url(#linear-gradient7);
      }

      .st8 {
        fill: url(#linear-gradient5);
      }

      .st9 {
        fill: url(#linear-gradient4);
      }

      .st10 {
        fill: url(#radial-gradient);
      }

      .st11 {
        fill: url(#linear-gradient);
      }

      .st12 {
        fill: #4fbfd8;
      }

      .st13 {
        fill: #c63a8e;
      }

      .st14 {
        fill: #fff;
      }

      .st15 {
        fill: url(#radial-gradient1);
      }

      .st16 {
        fill: url(#radial-gradient2);
      }
    </style>
    <radialGradient id="radial-gradient" cx="848.3" cy="68.1" fx="848.3" fy="68.1" r="41.8" gradientTransform="translate(0 134) scale(1 -1)" gradientUnits="userSpaceOnUse">
      <stop offset="0" stop-color="#4fbfd8"/>
      <stop offset=".4" stop-color="#4fbfd6"/>
      <stop offset=".5" stop-color="#50c0cf"/>
      <stop offset=".6" stop-color="#53c3c3"/>
      <stop offset=".7" stop-color="#56c6b2"/>
      <stop offset=".7" stop-color="#5bcaa0"/>
    </radialGradient>
    <linearGradient id="linear-gradient" x1="857.9" y1="46.3" x2="863.4" y2="31.8" gradientTransform="translate(0 134) scale(1 -1)" gradientUnits="userSpaceOnUse">
      <stop offset="0" stop-color="#c63a8e"/>
      <stop offset=".5" stop-color="#c4398d"/>
      <stop offset=".6" stop-color="#bd388c"/>
      <stop offset=".8" stop-color="#b1358b"/>
      <stop offset=".8" stop-color="#a03289"/>
      <stop offset=".9" stop-color="#8a2d86"/>
      <stop offset="1" stop-color="#732983"/>
    </linearGradient>
    <linearGradient id="linear-gradient1" x1="839.7" y1="49.1" x2="835.5" y2="30.3" gradientTransform="translate(0 134) scale(1 -1)" gradientUnits="userSpaceOnUse">
      <stop offset="0" stop-color="#c63a8e"/>
      <stop offset=".5" stop-color="#c4398d"/>
      <stop offset=".6" stop-color="#bd388c"/>
      <stop offset=".8" stop-color="#b1358b"/>
      <stop offset=".8" stop-color="#a03289"/>
      <stop offset=".9" stop-color="#8a2d86"/>
      <stop offset="1" stop-color="#732983"/>
    </linearGradient>
    <linearGradient id="linear-gradient2" x1="870.1" y1="61.3" x2="887" y2="51.3" gradientTransform="translate(0 134) scale(1 -1)" gradientUnits="userSpaceOnUse">
      <stop offset="0" stop-color="#c63a8e"/>
      <stop offset=".5" stop-color="#c4398d"/>
      <stop offset=".6" stop-color="#bd388c"/>
      <stop offset=".8" stop-color="#b1358b"/>
      <stop offset=".8" stop-color="#a03289"/>
      <stop offset=".9" stop-color="#8a2d86"/>
      <stop offset="1" stop-color="#732983"/>
    </linearGradient>
    <linearGradient id="linear-gradient3" x1="867.4" y1="77.2" x2="892.3" y2="83" gradientTransform="translate(0 134) scale(1 -1)" gradientUnits="userSpaceOnUse">
      <stop offset="0" stop-color="#c63a8e"/>
      <stop offset=".5" stop-color="#c4398d"/>
      <stop offset=".6" stop-color="#bd388c"/>
      <stop offset=".8" stop-color="#b1358b"/>
      <stop offset=".8" stop-color="#a03289"/>
      <stop offset=".9" stop-color="#8a2d86"/>
      <stop offset="1" stop-color="#732983"/>
    </linearGradient>
    <linearGradient id="linear-gradient4" x1="857.7" y1="86.4" x2="861.6" y2="106.4" gradientTransform="translate(0 134) scale(1 -1)" gradientUnits="userSpaceOnUse">
      <stop offset="0" stop-color="#c63a8e"/>
      <stop offset=".5" stop-color="#c4398d"/>
      <stop offset=".6" stop-color="#bd388c"/>
      <stop offset=".8" stop-color="#b1358b"/>
      <stop offset=".8" stop-color="#a03289"/>
      <stop offset=".9" stop-color="#8a2d86"/>
      <stop offset="1" stop-color="#732983"/>
    </linearGradient>
    <linearGradient id="linear-gradient5" x1="837.8" y1="86.9" x2="834.9" y2="105" gradientTransform="translate(0 134) scale(1 -1)" gradientUnits="userSpaceOnUse">
      <stop offset="0" stop-color="#c63a8e"/>
      <stop offset=".5" stop-color="#c4398d"/>
      <stop offset=".6" stop-color="#bd388c"/>
      <stop offset=".8" stop-color="#b1358b"/>
      <stop offset=".8" stop-color="#a03289"/>
      <stop offset=".9" stop-color="#8a2d86"/>
      <stop offset="1" stop-color="#732983"/>
    </linearGradient>
    <linearGradient id="linear-gradient6" x1="827.5" y1="72" x2="810.7" y2="83.4" gradientTransform="translate(0 134) scale(1 -1)" gradientUnits="userSpaceOnUse">
      <stop offset="0" stop-color="#c63a8e"/>
      <stop offset=".5" stop-color="#c4398d"/>
      <stop offset=".6" stop-color="#bd388c"/>
      <stop offset=".8" stop-color="#b1358b"/>
      <stop offset=".8" stop-color="#a03289"/>
      <stop offset=".9" stop-color="#8a2d86"/>
      <stop offset="1" stop-color="#732983"/>
    </linearGradient>
    <linearGradient id="linear-gradient7" x1="826.1" y1="56.2" x2="805.3" y2="55.2" gradientTransform="translate(0 134) scale(1 -1)" gradientUnits="userSpaceOnUse">
      <stop offset="0" stop-color="#c63a8e"/>
      <stop offset=".5" stop-color="#c4398d"/>
      <stop offset=".6" stop-color="#bd388c"/>
      <stop offset=".8" stop-color="#b1358b"/>
      <stop offset=".8" stop-color="#a03289"/>
      <stop offset=".9" stop-color="#8a2d86"/>
      <stop offset="1" stop-color="#732983"/>
    </linearGradient>
    <radialGradient id="radial-gradient1" cx="866.9" cy="80.5" fx="842.1" fy="58.3" r="42.3" gradientTransform="translate(0 110.5) scale(1 -.9)" gradientUnits="userSpaceOnUse">
      <stop offset=".5" stop-color="#5bcaa0"/>
      <stop offset=".6" stop-color="#819599"/>
      <stop offset=".7" stop-color="#c63a8e"/>
    </radialGradient>
    <radialGradient id="radial-gradient2" cx="855.6" cy="18.8" fx="855.6" fy="18.8" r="69.3" gradientTransform="translate(0 134) scale(1 -1)" gradientUnits="userSpaceOnUse">
      <stop offset=".5" stop-color="#5bcaa0"/>
      <stop offset=".5" stop-color="#809799"/>
      <stop offset=".7" stop-color="#b25491"/>
      <stop offset=".7" stop-color="#c63a8e"/>
    </radialGradient>
  </defs>
  <g id="Layer_3">
    <g class="st2">
      <text class="st0" transform="translate(0 96.1)"><tspan x="0" y="0">bizz</tspan></text>
      <text class="st1" transform="translate(199.2 96.1)"><tspan x="0" y="0">NES</tspan></text>
      <text class="st1" transform="translate(429.5 96.1)"><tspan x="0" y="0">T</tspan></text>
      <text class="st1" transform="translate(495.9 96.1)"><tspan x="0" y="0" xml:space="preserve"> Flow</tspan></text>
    </g>
    <g>
      <path class="st10" d="M870.6,45.5c-4,0-7.5,1.1-7.5,1.1-2,.6-3.7,1.4-4.8,2-.6-.4-1.4-.8-2.3-1.2-.8-.3-1.6-.5-2.2-.6.3-.5.8-1.3,1.6-2.3,3.9-5.3,8.9-8,11.4-9.4.7-.4,1.8-1,3.2-1.6-2.4-1.9-4.8-3.9-7.1-5.8-3.1,1.2-8.2,3.7-13,8.5-3.8,3.8-6.1,7.7-7.4,10.5-.7.2-1.4.5-2.2.9-.8.4-1.5.8-2.2,1.1,0-1.5-.3-11.2,1.1-14.2.1-.2.2-.5.2-.5,1-2,2.1-3.4,2.9-4.4-4-.2-8-.4-11.9-.6-.3.8-.7,2-1.1,3.3-2.2,7.5-1.6,13.6-1.4,15.1.2,2.4.8,5.8,2.3,9.6-.3.6-.5,1.2-.8,1.8-.3.9-.6,1.7-.8,2.5-2-1.3-4.6-3.2-7-5.9-.7-.8-2.7-3.1-4.5-6.6-.8-1.5-1.3-2.8-1.7-3.8-2.4,2-4.8,4.1-7.1,6.1,1,3.3,4,11.5,12.1,17.2,3.2,2.3,6.5,3.6,9,4.4.2.6.5,1.3.8,2,.2.5.5.9.7,1.3-2.4.5-6.2,1.1-10.7.5-4.5-.6-7.9-2-10.1-3.1-2.6-1-5.3-.2-6.4,1.6-1.3,2.3.4,5.4,1.7,6.2,1.2.8,2.3,1.5,3.7,2.2,2.2,1.1,4.1,1.5,4.8,1.7,6.7,1.7,13.6,1.2,13.6,1.2,4.7-.3,8.7-1.4,11.9-2.6.5.3,1.1.6,1.8.8.7.3,1.4.5,2,.6-2.3,3.6-4.7,6.1-6.6,7.8-2.5,2.3-4.8,3.7-5.9,4.3-2.9,1.7-5.5,2.7-7.6,3.3,5.2,1,10.5,1.9,15.7,2.9,2.8-1.6,6.9-4.5,10.6-9.4,2.6-3.4,4.2-6.7,5.1-9.3.6-.2,1.3-.5,2-.8.7-.3,1.2-.6,1.8-.9.4,1.9.7,4.4.6,7.2-.2,5.2-1.7,9.4-2.9,11.9,3.6-.8,7.3-1.6,10.9-2.4,1-3,2.3-7.9,1.9-14.1-.3-4.6-1.4-8.4-2.5-10.9.2-.4.4-.9.7-1.4.3-.7.5-1.4.6-2,2.4,1.1,5.5,2.9,8.3,6,1.4,1.6,2.4,3.1,2.9,4.1,1.7,3,2.5,5.7,2.8,7.6,2-2.6,4-5.2,6-7.9-2.2-4.6-6.2-11.3-13.4-17-2.2-1.8-4.4-3.1-6.5-4.2-.2-.6-.4-1.3-.7-2.1-.3-.7-.6-1.3-.9-1.8.8-.4,2-.8,3.5-1.2,7.7-2,14.3.9,16.2,1.8,1.9.8,4.6,2.4,7.5,5.1,0-2.6.2-5.1.2-7.7-9.2-6.5-18-9.2-22.8-9.1h0Z"/>
      <path class="st11" d="M866.2,75.5c.9,2.3,1.8,5.3,2.3,8.7,1.1,7.4-.3,13.6-1.5,17.3-1.7.8-3.8,1.5-6.1,2.1-3.8.9-7.1,1.1-9.6,1,.5-.3,1-.7,1.6-1.1,2.2-1.7,3.7-3.6,4.7-5.2,2.5-3.3,5.6-8.5,7.4-15.3.7-2.7,1.1-5.2,1.2-7.5h0Z"/>
      <path class="st4" d="M854.4,85.4c-.8,2-1.8,4.3-3.3,6.7-3.9,6.1-8.7,9.8-12,11.9-2.3.2-5.4.2-8.9-.4-3.7-.7-6.7-1.9-8.8-2.9,1.5-.3,3.1-.7,4.9-1.2,1.6-.5,3.1-1.1,4.3-1.7,4.8-1,11.5-3,18.2-7.7,2.2-1.5,4.1-3.1,5.7-4.7h0Z"/>
      <path class="st3" d="M867.7,60.6c3.7,1.6,9.1,4.6,14.3,9.8,3.1,3.1,5.3,6.2,6.8,8.8-.3,1.6-1.2,4.5-3.7,7.2-1.6,1.8-3.3,2.9-4.5,3.6,0-1.8-.4-3.9-1.2-6.2-.2-.6-.4-1.2-.7-1.7-.9-3.4-2.4-7.6-4.8-12.1-2-3.9-4.3-7-6.2-9.5h0Z"/>
      <path class="st5" d="M858.3,48.6c1.2-.6,2.8-1.4,4.8-2.1.3,0,4.8-1.7,9.8-2,9-.6,17.1,3,19.4,4,.7,2.2,1.3,5.2,1.3,8.7,0,1.9-.2,3.7-.5,5.1-1.2-1-2.5-2.1-4.1-3.1-1.2-.8-2.3-1.4-3.3-2-2.7-1.9-6.6-4.3-11.7-6-6.4-2.2-12-2.6-15.7-2.6Z"/>
      <path class="st9" d="M842.4,46.7c.8-1.7,1.8-3.5,3-5.4,4.3-6.6,9.7-10.8,13.7-13.4,2.4-.1,5.5,0,9.2.8,3.3.7,6,1.8,8,2.8-1.2.3-2.5.6-3.9,1.1-2.2.8-4.1,1.6-5.7,2.5-2.3.2-4.8.7-7.6,1.6-8,2.5-13.5,6.9-16.7,10h0Z"/>
      <path class="st8" d="M830.1,57.2c-1.1-2.7-2.3-6.7-2.6-11.7-.3-5.9.8-10.7,1.8-13.6,2.7-1.3,6.2-2.6,10.4-3.4,1.9-.3,3.7-.5,5.2-.6-.9.6-2,1.5-3,2.7-1.3,1.4-2.2,2.8-2.8,3.9-2.2,2.1-6.5,6.8-8.3,14.1-.8,3.3-.9,6.3-.8,8.6h0Z"/>
      <path class="st6" d="M829.3,73.1c-2.9-.9-7.5-2.7-12-6.5-5.4-4.5-8.2-9.5-9.6-12.4.9-2,2.1-4.2,3.6-6.5,1.4-2.2,2.9-4.1,4.2-5.7,0,1.1.2,2.4.6,3.9.3,1.2.6,2.2,1,3.1.5,4.1,2,10.9,6.7,17.6,1.8,2.6,3.8,4.7,5.6,6.4Z"/>
      <path class="st7" d="M839.2,84.2c-.5.2-1,.4-1.6.6-7.1,2.4-17.4,4-31.2.4-.8-.8-3.6-3.7-4.1-8.3-.4-3.6.8-6.3,1.4-7.4,1,.9,2.2,2,3.8,3,.9.5,1.7,1,2.5,1.3,3,2.6,8.7,6.8,16.8,9,4.9,1.3,9.2,1.5,12.4,1.4h0Z"/>
      <path class="st12" d="M853.6,104.6c3.2,2.9,6.3,5.9,9.5,8.8,2.6-1.1,28.8-12.5,35.7-23.1,1-1.6,1.9-3.2,1.9-3.2,1.8-3.7,4.2-9.8,4.6-17.7.3-5.6-.5-10.4-1.3-13.7l-12.4,16.8c-.5,1.7-1.3,4.1-2.8,6.7-.5.9-.9,1.5-1.5,2.3-2.8,4.3-5.6,7.3-6.7,8.5-1.1,1.1-2.5,2.5-4.2,4-3.2,2.5-7.7,5.5-13.5,7.8-3.4,1.3-6.5,2.2-9.3,2.8Z"/>
      <path class="st12" d="M843,28.1c-3.3-3.4-6.5-6.8-9.8-10.1-6,1.4-18.8,5.3-28.4,17.1-.5.7-3.2,3.9-5.6,8.8-1.4,2.7-9.2,18.8-4.1,36.5.2.8.4,1.4.6,1.8,3.1-6.9,6.2-13.8,9.4-20.8.7-2.4,1.8-5.5,3.6-8.9,1.9-3.5,3.7-5.9,4.2-6.5,3.9-4.9,8-7.6,11-9.6,3.9-2.5,10.3-6,19.2-8.3h0Z"/>
      <path class="st13" d="M821.3,100.7c3.6,2.2,8.2,4.4,13.6,6.4,4,1.4,7.7,2.4,10.9,3,0-1.9,0-3.8.1-5.7-3.6-.1-7.6-.4-11.9-1-4.8-.7-9-1.6-12.8-2.7h0Z"/>
      <path class="st13" d="M876.3,31.6c-3.2-2.4-8-5.6-14.6-7.7-4.3-1.4-8.2-2-11.3-2.2v6.2c3.2-.1,6.8-.1,10.8.3,6,.6,11.1,2,15.1,3.4h0Z"/>
      <path class="st13" d="M844.9,28c-3-2.5-5.8-5-5.9-5.1-.5-.4-5.3-4.6-5.8-5-4.6.9-14,3.4-22.8,11.2-5.9,5.2-9.3,10.8-11.2,14.5,1.9-1.2,4.5-2.7,7.6-4.2,2.1-1,4.1-1.9,6.5-3,6.3-2.7,11.4-4.8,18-6.4,4.9-1.2,8.9-1.6,10.3-1.8,1.3-.1,2.5-.2,3.3-.3h0Z"/>
      <path class="st13" d="M851.4,104.6c3.8,3.4,7.6,6.8,11.4,10.2,6.4-1.5,11.4-3.7,15.1-5.5,5.2-2.6,10.8-6.1,13.5-9,2.6-2.7,5.4-6.4,5.4-6.4h0c.7-1,1.5-2.2,2.2-3.5.7-1.2,1.2-2.2,1.6-3.3-2.5,1.9-5.9,4.3-10,6.5-1.7,1-7,3.8-14.3,6.3-5.7,1.9-14.2,4.2-25,4.7h0Z"/>
      <path class="st15" d="M895.1,36.4c-2.2-3-4.3-5.1-5.1-5.9-2.6-2.7-6.2-5.7-10.8-8.4-1.5-.9-7.6-4.5-16.5-6.7-3.5-.9-8.4-1.8-14.3-1.9v-7.4l-12.7,10.9,12.7,10.9v-7.9c2.6,0,6.1.4,10,1.4,1.5.4,6.4,1.7,12.4,5,3.4,1.9,11.2,6.3,16.8,15,2.1,3.2,3.4,6.4,4.3,9.3.5,1.5,2.1,7.4,1.2,15-.7,6-2.6,10.6-4.2,13.6,2.8-2.7,6.3-6.6,9.5-11.7,2.7-4.4,4.5-8.5,5.6-11.8-2.4-9.5-6.4-15.9-8.9-19.3h0Z"/>
      <path class="st16" d="M860.5,115.7c-4.1-3.7-8.2-7.4-12.3-11.1v7.4c-4.2-.5-9.3-1.6-14.9-3.8-5.7-2.2-14.5-5.7-21.3-14.5-2.5-3.3-8.1-11.8-8-23.7,0-7.2,2.3-12.8,3.8-15.9-2.7,3.3-6.1,8.1-8.8,14.5-2,4.7-3.1,9.1-3.7,12.6,1.4,4.7,4.8,13.4,13,21.4,7.8,7.6,16,10.8,19.7,12.2,9.1,3.4,17,3.8,20.1,3.9v7.9c4.1-3.6,8.2-7.2,12.3-10.8h0Z"/>
      <path class="st14" d="M859.4,55c-1.2-1.3-3-2-5.1-2s-3.6.5-5.5,1.3c-1.1-.2-2.2-.3-3.4-.3-7.2,0-13,3.9-13,8.7s1.3,4.4,3.7,6.1c0,0,0,0,0,0-.7,2.9-.1,5.5,1.5,7.2,1.2,1.3,3,2,5.1,2s1.5,0,2.3-.3c1.6,2.5,3.8,3.8,6.2,3.8h0c4.8,0,8.7-5.8,8.7-13s0-2.2-.3-3.2c.5-1.1,1-2.2,1.2-3.3.7-2.9.1-5.5-1.5-7.2h0ZM833.4,62.8c0-4.3,5.4-7.8,12.1-7.8s1.4,0,2,.1c-1.2.7-2.4,1.6-3.5,2.7-.6.6-1.2,1.2-1.7,1.8-.5.4-.9.8-1.4,1.2-2.2,2.1-3.8,4.6-4.6,7.1-2-1.4-3-3.2-3-5.1h0ZM858.8,65.3c-.5,1-1.1,1.9-1.9,2.8.4-.8.7-1.7.9-2.6.3-.6.5-1.2.6-1.8.2.5.3,1,.4,1.6h0ZM845.6,76.8c-.3-.6-.6-1.2-.9-1.8.4,0,.7,0,1.1,0,1.8,0,3.7-.5,5.5-1.4-1.8,1.5-3.8,2.6-5.8,3.1h0ZM845.8,74.2c-.5,0-1,0-1.5-.1-.3-.8-.5-1.7-.6-2.6.6,0,1.2,0,1.7,0h0c4.3,0,8.1-1.4,10.5-3.6-.5,1-1.1,1.9-1.8,2.9-2.6,2.1-5.6,3.3-8.3,3.3h0ZM843,60.3c.9-.7,1.9-1.4,2.9-1.9-.3.3-.6.7-.8,1.1-1.6,2.4-2.5,5.7-2.5,9.1s0,1.2,0,1.7c-.9-.1-1.8-.4-2.7-.6-.6-2.8.5-6.3,3-9.5h0ZM839,69.4c-.6-.3-1.2-.6-1.8-.9.5-1.9,1.6-3.8,3-5.5-1,2.2-1.5,4.4-1.2,6.4ZM851.3,57c1.8,0,3.4.6,4.5,1.7h0c1.4,1.5,1.9,3.7,1.3,6.3,0,0,0,.2,0,.2-1.6,3.1-6.1,5.3-11.5,5.3h0c-.6,0-1.2,0-1.8,0,0-.6,0-1.2,0-1.9,0-3.3.8-6.3,2.3-8.6.7-1.1,1.6-2,2.5-2.6,1-.3,2-.4,2.9-.4h0ZM842.8,71.4c.1.8.3,1.6.5,2.4-.7-.3-1.4-.7-1.9-1.2-.5-.5-.8-1-1-1.6.8.2,1.6.4,2.5.5h0ZM848,56.6c-.7.2-1.5.5-2.2.9,1-.8,2.1-1.5,3.2-2.1.5,0,1,.2,1.4.3-.8.1-1.6.4-2.4.9h0ZM838.3,75.5c-1.4-1.4-1.8-3.6-1.3-6.1.7.4,1.4.8,2.2,1,.3,1,.8,1.9,1.5,2.6.8.8,1.8,1.4,2.9,1.7.3.8.6,1.5,1,2.2-.6.1-1.2.2-1.8.2-1.8,0-3.4-.6-4.5-1.7h0ZM859.1,68.7c0,6.7-3.5,12.1-7.8,12.1h0c-1.9,0-3.8-1.1-5.2-3.2,2.4-.7,4.9-2.2,7-4.2.6-.6,1.2-1.2,1.7-1.9.5-.4.9-.8,1.3-1.2,1.1-1.1,2.1-2.3,2.9-3.6,0,.6,0,1.2,0,1.9h0ZM860,62c-.2.7-.4,1.3-.6,2-.4-1.6-1-3-1.8-4.2-.2-.4-.5-.8-.9-1.2-.1-.2-.2-.3-.4-.4,0,0-.2-.2-.3-.2-.5-.5-1.1-1-1.7-1.3-1.2-.7-2.5-1.3-4-1.7,1.3-.5,2.7-.8,3.9-.8,1.8,0,3.4.6,4.5,1.7,1.4,1.5,1.9,3.7,1.3,6.3h0Z"/>
    </g>
  </g>
</svg>